OpenSim_Sub10_CSBaseline_RCS.mot
version=1
nRows=80
nColumns=11
inDegrees=no
endheader
time	Top_Thigh	Med_Thigh	Bot_Thigh	Top_Shank	2nd_Top_Shank	2nd_Bot_Shank	Bot_Shank	BNOx	BNOy	BNOZ
0	2036.32539570	1976.70843534	1771.24234196	1317.90490459	1490.11117146	1310.09834980	1313.48790287	0	0	0
0.01000000	2038.41823233	1977.96935387	1770.68986320	1317.68864982	1489.51005282	1310.52674963	1313.87731497	0	0	0
0.02000000	2039.76960144	1978.83567282	1770.15481223	1317.20396978	1489.08074927	1310.90198178	1314.01736465	0	0	0
0.03000000	2040.19989554	1979.19535564	1769.65441588	1316.41793804	1488.91162236	1311.19938070	1313.84706196	0	0	0
0.04000000	2039.77635445	1979.06564405	1769.22459837	1315.38742215	1488.99934310	1311.42854721	1313.41838180	0	0	0
0.05000000	2038.71184465	1978.54004702	1768.91231436	1314.22226329	1489.28648999	1311.61929746	1312.84994227	0	0	0
0.06000000	2037.22111484	1977.71305926	1768.76466110	1313.03298731	1489.71494238	1311.80170887	1312.26122281	0	0	0
0.07000000	2035.51891370	1976.67917550	1768.82873580	1311.93012007	1490.22657962	1312.00585888	1311.77170287	0	0	0
0.08000000	2033.81998992	1975.53289044	1769.15163569	1311.02418741	1490.76328107	1312.26182490	1311.50086191	0	0	0
0.09000000	2032.33909217	1974.36869881	1769.78045801	1310.42571519	1491.26692608	1312.59968438	1311.56817937	0	0	0
0.10000000	2031.29096916	1973.28109531	1770.76229999	1310.24522927	1491.67939402	1313.04951472	1312.09313470	0	0	0
0.11000000	2030.89036956	1972.36457466	1772.14425885	1310.59325550	1491.94256424	1313.64139337	1313.19520735	0	0	0
0.12000000	2031.34284012	1971.71067823	1773.96872553	1311.57316053	1492.00063086	1314.40306658	1314.98480417	0	0	0
0.13000000	2032.64228321	1971.34302051	1776.16984595	1313.12364936	1491.85102765	1315.30866380	1317.36366204	0	0	0
0.14000000	2034.57095674	1971.21728912	1778.57352108	1315.01876535	1491.54442806	1316.27869767	1320.02484793	0	0	0
0.15000000	2036.90191673	1971.28621831	1781.00094556	1317.02539263	1491.13382027	1317.23134969	1322.65235617	0	0	0
0.16000000	2039.40821919	1971.50254236	1783.27331402	1318.91041536	1490.67219249	1318.08480131	1324.93018112	0	0	0
0.17000000	2041.86292011	1971.81899553	1785.21182113	1320.44071769	1490.21253290	1318.75723402	1326.54231712	0	0	0
0.18000000	2044.04473653	1972.18905013	1786.64333387	1321.39035109	1489.80662735	1319.16944212	1327.18355547	0	0	0
0.19000000	2045.86258897	1972.58315324	1787.52518331	1321.69821566	1489.47860728	1319.30231474	1326.79701720	0	0	0
0.20000000	2047.35560146	1972.98872673	1787.94516459	1321.46806006	1489.22494974	1319.19683583	1325.57415311	0	0	0
0.21000000	2048.56855904	1973.39393049	1787.99674519	1320.81080032	1489.04092940	1318.89660217	1323.71721095	0	0	0
0.22000000	2049.54624676	1973.78692443	1787.77339260	1319.83735245	1488.92182097	1318.44521055	1321.42843845	0	0	0
0.23000000	2050.33344967	1974.15586845	1787.36857430	1318.65863247	1488.86289913	1317.88625774	1318.91008337	0	0	0
0.24000000	2050.97495281	1974.48892245	1786.87575777	1317.38555639	1488.85943856	1317.26334053	1316.36439344	0	0	0
0.25000000	2051.51554124	1974.77424634	1786.38841051	1316.12904023	1488.90671396	1316.62005569	1313.99361640	0	0	0
0.26000000	2052	1975	1786	1315	1489	1316	1312	0	0	0
0.27000000	2052.46377303	1975.15647303	1785.78446779	1314.08627437	1489.13553951	1315.43761834	1310.54010777	0	0	0
0.28000000	2052.90493985	1975.24247377	1785.73765174	1313.38339263	1489.31344787	1314.93074793	1309.58776644	0	0	0
0.29000000	2053.31223887	1975.25894023	1785.83586374	1312.86380669	1489.53480858	1314.46807412	1309.07111852	0	0	0
0.30000000	2053.67440851	1975.20681042	1786.05541573	1312.49996850	1489.80070516	1314.03828221	1308.91830653	0	0	0
0.31000000	2053.98018718	1975.08702237	1786.37261962	1312.26432997	1490.11222110	1313.63005755	1309.05747299	0	0	0
0.32000000	2054.21831330	1974.90051410	1786.76378731	1312.12934305	1490.47043992	1313.23208546	1309.41676040	0	0	0
0.33000000	2054.37752527	1974.64822362	1787.20523073	1312.06745965	1490.87644513	1312.83305127	1309.92431130	0	0	0
0.34000000	2054.44656151	1974.33108895	1787.67326180	1312.05113172	1491.33132023	1312.42164030	1310.50826819	0	0	0
0.35000000	2054.41416044	1973.95004811	1788.14419242	1312.05281118	1491.83614874	1311.98653788	1311.09677359	0	0	0
0.36000000	2054.26906047	1973.50603912	1788.59433452	1312.04494996	1492.39201416	1311.51642934	1311.61797002	0	0	0
0.37000000	2054	1973	1789	1312	1493	1311	1312	0	0	0
0.38000000	2053.60124854	1972.43541733	1789.34069232	1311.89704061	1493.65860700	1310.43192610	1312.18793609	0	0	0
0.39000000	2053.08919992	1971.82597199	1789.60868105	1311.74166067	1494.35600477	1309.83084748	1312.19457106	0	0	0
0.40000000	2052.48577904	1971.18789340	1789.79942729	1311.54607643	1495.07778018	1309.22139487	1312.04962772	0	0	0
0.41000000	2051.81291081	1970.53741099	1789.90839214	1311.32250418	1495.80952006	1308.62819903	1311.78282889	0	0	0
0.42000000	2051.09252015	1969.89075422	1789.93103671	1311.08316017	1496.53681128	1308.07589070	1311.42389740	0	0	0
0.43000000	2050.34653196	1969.26415250	1789.86282210	1310.84026067	1497.24524067	1307.58910062	1311.00255604	0	0	0
0.44000000	2049.59687116	1968.67383527	1789.69920942	1310.60602193	1497.92039508	1307.19245953	1310.54852765	0	0	0
0.45000000	2048.86546266	1968.13603198	1789.43565976	1310.39266023	1498.54786137	1306.91059818	1310.09153503	0	0	0
0.46000000	2048.17423135	1967.66697204	1789.06763424	1310.21239184	1499.11322639	1306.76814732	1309.66130100	0	0	0
0.47000000	2047.54510216	1967.28288490	1788.59059395	1310.07743300	1499.60207698	1306.78973767	1309.28754839	0	0	0
0.48000000	2047	1967	1788	1310	1500	1307	1309	0	0	0
0.49000000	2046.55675625	1966.82952839	1787.29740884	1309.98903541	1500.29635811	1307.41481142	1308.82178819	0	0	0
0.50000000	2046.21682818	1966.76260764	1786.50875831	1310.04038711	1500.49561729	1308.01503455	1308.74968350	0	0	0
0.51000000	2045.97757956	1966.78535695	1785.66608160	1310.14662930	1500.60601934	1308.77277841	1308.77386598	0	0	0
0.52000000	2045.83637415	1966.88389551	1784.80141190	1310.30033616	1500.63580603	1309.66015201	1308.88451570	0	0	0
0.53000000	2045.79057569	1967.04434251	1783.94678240	1310.49408190	1500.59321918	1310.64926435	1309.07181274	0	0	0
0.54000000	2045.83754794	1967.25281716	1783.13422628	1310.72044070	1500.48650057	1311.71222443	1309.32593715	0	0	0
0.55000000	2045.97465466	1967.49543864	1782.39577675	1310.97198676	1500.32389199	1312.82114127	1309.63706901	0	0	0
0.56000000	2046.19925961	1967.75832616	1781.76346698	1311.24129428	1500.11363525	1313.94812387	1309.99538838	0	0	0
0.57000000	2046.50872654	1968.02759890	1781.26933017	1311.52093745	1499.86397213	1315.06528124	1310.39107533	0	0	0
0.58000000	2046.90041920	1968.28937606	1780.94539951	1311.80349046	1499.58314443	1316.14472238	1310.81430993	0	0	0
0.59000000	2047.37170136	1968.52977683	1780.82370818	1312.08152751	1499.27939395	1317.15855631	1311.25527225	0	0	0
0.60000000	2047.91993676	1968.73492042	1780.93628937	1312.34762280	1498.96096246	1318.07889203	1311.70414235	0	0	0
0.61000000	2048.54248916	1968.89092602	1781.31517628	1312.59435051	1498.63609178	1318.87783855	1312.15110029	0	0	0
0.62000000	2049.23672232	1968.98391281	1781.99240209	1312.81428485	1498.31302370	1319.52750487	1312.58632615	0	0	0
0.63000000	2050	1969	1783	1313	1498	1320	1313	0	0	0
0.64000000	2050.82740819	1968.93046546	1784.35453494	1313.14580278	1497.70406797	1320.27512659	1313.38354665	0	0	0
0.65000000	2051.70492189	1968.78722182	1786.01069886	1313.25293046	1497.42749683	1320.36346186	1313.73336995	0	0	0
0.66000000	2052.61623833	1968.58734036	1787.90771546	1313.32435292	1497.17136130	1320.28327665	1314.04711849	0	0	0
0.67000000	2053.54505474	1968.34789240	1789.98480844	1313.36304006	1496.93673608	1320.05284182	1314.32244087	0	0	0
0.68000000	2054.47506835	1968.08594922	1792.18120150	1313.37196176	1496.72469589	1319.69042823	1314.55698569	0	0	0
0.69000000	2055.38997642	1967.81858213	1794.43611833	1313.35408790	1496.53631544	1319.21430673	1314.74840153	0	0	0
0.70000000	2056.27347616	1967.56286243	1796.68878264	1313.31238838	1496.37266943	1318.64274818	1314.89433700	0	0	0
0.71000000	2057.10926481	1967.33586142	1798.87841813	1313.24983308	1496.23483259	1317.99402343	1314.99244069	0	0	0
0.72000000	2057.88103961	1967.15465040	1800.94424848	1313.16939189	1496.12387961	1317.28640333	1315.04036119	0	0	0
0.73000000	2058.57249779	1967.03630067	1802.82549741	1313.07403469	1496.04088521	1316.53815874	1315.03574711	0	0	0
0.74000000	2059.16745164	1966.99778236	1804.46174046	1312.96674895	1495.98690564	1315.76754296	1314.97631095	0	0	0
0.75000000	2059.65861457	1967.04823852	1805.81977644	1312.85188223	1495.96156827	1314.99145054	1314.86470967	0	0	0
0.76000000	2060.05378805	1967.18354477	1806.91254939	1312.73608751	1495.96207843	1314.22447296	1314.71198150	0	0	0
0.77000000	2060.36223508	1967.39829156	1807.75747328	1312.62624110	1495.98540685	1313.48097855	1314.52997647	0	0	0
0.78000000	2060.59321864	1967.68706933	1808.37196203	1312.52921931	1496.02852426	1312.77533569	1314.33054466	0	0	0
0.79000000	2060.75600170	1968.04446853	1808.77342959	1312.45189846	1496.08840138	1312.12191271	1314.12553612	0	0	0
